<svg width="181" height="35" viewBox="0 0 181 35" fill="none" xmlns="http://www.w3.org/2000/svg">
<g clip-path="url(#clip0_12405_7)">
<path d="M-0.0960083 28V8.12H4.49599V23.968H14.128V28H-0.0960083Z" fill="white"/>
<path d="M24.6354 28.168C23.1421 28.168 21.7888 27.888 20.5754 27.328C19.3808 26.7493 18.3448 25.984 17.4674 25.032C16.6088 24.0613 15.9461 22.9787 15.4794 21.784C15.0128 20.5707 14.7794 19.32 14.7794 18.032C14.7794 16.7067 15.0221 15.4467 15.5074 14.252C16.0114 13.0573 16.7021 11.9933 17.5794 11.06C18.4754 10.108 19.5301 9.36133 20.7434 8.81999C21.9568 8.27866 23.2821 8.00799 24.7194 8.00799C26.1941 8.00799 27.5288 8.29733 28.7234 8.876C29.9368 9.436 30.9728 10.2013 31.8314 11.172C32.7088 12.1427 33.3808 13.2347 33.8474 14.448C34.3141 15.6427 34.5474 16.8653 34.5474 18.116C34.5474 19.4413 34.3048 20.7013 33.8194 21.896C33.3341 23.0907 32.6434 24.164 31.7474 25.116C30.8514 26.0493 29.7968 26.796 28.5834 27.356C27.3888 27.8973 26.0728 28.168 24.6354 28.168ZM19.4554 18.088C19.4554 18.8533 19.5674 19.6 19.7914 20.328C20.0154 21.0373 20.3421 21.672 20.7714 22.232C21.2194 22.792 21.7701 23.24 22.4234 23.576C23.0768 23.912 23.8234 24.08 24.6634 24.08C25.5408 24.08 26.3061 23.912 26.9594 23.576C27.6128 23.2213 28.1541 22.7547 28.5834 22.176C29.0128 21.5973 29.3301 20.9533 29.5354 20.244C29.7594 19.516 29.8714 18.7787 29.8714 18.032C29.8714 17.2667 29.7594 16.5293 29.5354 15.82C29.3114 15.1107 28.9754 14.476 28.5274 13.916C28.0794 13.3373 27.5288 12.8893 26.8754 12.572C26.2221 12.2547 25.4848 12.096 24.6634 12.096C23.7861 12.096 23.0208 12.264 22.3674 12.6C21.7328 12.936 21.1914 13.3933 20.7434 13.972C20.3141 14.532 19.9874 15.176 19.7634 15.904C19.5581 16.6133 19.4554 17.3413 19.4554 18.088Z" fill="white"/>
<path d="M37.2009 28V8.12H46.1609C47.0942 8.12 47.9529 8.316 48.7369 8.708C49.5395 9.08133 50.2302 9.59466 50.8089 10.248C51.3875 10.8827 51.8355 11.6013 52.1529 12.404C52.4889 13.2067 52.6569 14.0187 52.6569 14.84C52.6569 15.6613 52.5262 16.4453 52.2649 17.192C52.0035 17.92 51.6302 18.5827 51.1449 19.18C50.6595 19.7587 50.0809 20.2347 49.4089 20.608L53.7769 28H48.7089L44.9009 21.588H41.7929V28H37.2009ZM41.7929 17.584H45.9929C46.3662 17.584 46.6929 17.472 46.9729 17.248C47.2715 17.0053 47.5142 16.6787 47.7009 16.268C47.8875 15.8573 47.9809 15.3813 47.9809 14.84C47.9809 14.2987 47.8689 13.832 47.6449 13.44C47.4395 13.0293 47.1782 12.712 46.8609 12.488C46.5435 12.264 46.2075 12.152 45.8529 12.152H41.7929V17.584Z" fill="white"/>
<path d="M69.9307 23.968V28H55.9587V8.12H69.6787V12.152H60.5507V16.016H68.3907V19.74H60.5507V23.968H69.9307Z" fill="white"/>
<path d="M88.4004 28V16.156L84.1164 24.78H81.5964L77.3124 16.156V28H72.7204V8.12H77.7044L82.8564 18.508L88.0364 8.12H92.9924V28H88.4004Z" fill="white"/>
<path d="M96.8102 28V8.12H101.402V28H96.8102Z" fill="white"/>
<path d="M105.205 28V8.12H113.689C114.641 8.12 115.509 8.316 116.293 8.708C117.095 9.08133 117.786 9.59466 118.365 10.248C118.943 10.8827 119.391 11.6013 119.709 12.404C120.026 13.2067 120.185 14.028 120.185 14.868C120.185 16.0067 119.914 17.0893 119.373 18.116C118.85 19.1427 118.113 19.9827 117.161 20.636C116.227 21.2707 115.117 21.588 113.829 21.588H109.797V28H105.205ZM109.797 17.584H113.549C113.903 17.584 114.23 17.4813 114.529 17.276C114.827 17.0707 115.07 16.7627 115.257 16.352C115.443 15.9413 115.537 15.4373 115.537 14.84C115.537 14.224 115.425 13.72 115.201 13.328C114.995 12.9173 114.725 12.6187 114.389 12.432C114.071 12.2453 113.735 12.152 113.381 12.152H109.797V17.584Z" fill="white"/>
<path d="M134.578 13.944C134.522 13.8507 134.326 13.7107 133.99 13.524C133.654 13.3187 133.234 13.104 132.73 12.88C132.226 12.656 131.675 12.46 131.078 12.292C130.481 12.124 129.883 12.04 129.286 12.04C128.502 12.04 127.895 12.18 127.466 12.46C127.037 12.7213 126.822 13.132 126.822 13.692C126.822 14.14 126.981 14.4947 127.298 14.756C127.634 15.0173 128.11 15.2507 128.726 15.456C129.342 15.6427 130.098 15.8667 130.994 16.128C132.263 16.464 133.365 16.8747 134.298 17.36C135.231 17.8267 135.941 18.4333 136.426 19.18C136.93 19.9267 137.182 20.916 137.182 22.148C137.182 23.268 136.977 24.22 136.566 25.004C136.155 25.7693 135.595 26.3947 134.886 26.88C134.195 27.3467 133.402 27.692 132.506 27.916C131.61 28.1213 130.686 28.224 129.734 28.224C128.763 28.224 127.765 28.1307 126.738 27.944C125.73 27.7387 124.759 27.4587 123.826 27.104C122.893 26.7307 122.034 26.2827 121.25 25.76L123.266 21.756C123.341 21.8493 123.583 22.0267 123.994 22.288C124.405 22.5307 124.909 22.792 125.506 23.072C126.122 23.3333 126.803 23.5667 127.55 23.772C128.297 23.9773 129.053 24.08 129.818 24.08C130.639 24.08 131.246 23.9493 131.638 23.688C132.049 23.4267 132.254 23.0627 132.254 22.596C132.254 22.092 132.039 21.7 131.61 21.42C131.199 21.14 130.63 20.888 129.902 20.664C129.193 20.44 128.371 20.188 127.438 19.908C126.225 19.5347 125.217 19.1147 124.414 18.648C123.63 18.1813 123.042 17.612 122.65 16.94C122.277 16.268 122.09 15.428 122.09 14.42C122.09 13.02 122.417 11.844 123.07 10.892C123.742 9.92133 124.638 9.19333 125.758 8.708C126.878 8.204 128.101 7.952 129.426 7.952C130.359 7.952 131.255 8.064 132.114 8.28799C132.991 8.51199 133.803 8.792 134.55 9.128C135.315 9.464 135.997 9.8 136.594 10.136L134.578 13.944Z" fill="white"/>
<path d="M148.417 28.168C146.83 28.168 145.477 27.9067 144.357 27.384C143.237 26.8427 142.322 26.1147 141.613 25.2C140.922 24.2667 140.409 23.212 140.073 22.036C139.755 20.8413 139.597 19.5907 139.597 18.284V8.12H144.189V18.284C144.189 19.0307 144.263 19.7587 144.413 20.468C144.562 21.1587 144.805 21.7747 145.141 22.316C145.477 22.8573 145.906 23.2867 146.429 23.604C146.97 23.9213 147.633 24.08 148.417 24.08C149.219 24.08 149.891 23.9213 150.433 23.604C150.974 23.268 151.403 22.8293 151.721 22.288C152.038 21.728 152.271 21.1027 152.421 20.412C152.57 19.7213 152.645 19.012 152.645 18.284V8.12H157.237V18.284C157.237 19.6653 157.059 20.9533 156.705 22.148C156.369 23.3427 155.846 24.3973 155.137 25.312C154.427 26.208 153.513 26.908 152.393 27.412C151.291 27.916 149.966 28.168 148.417 28.168Z" fill="white"/>
<path d="M176.475 28V16.156L172.191 24.78H169.671L165.387 16.156V28H160.795V8.12H165.779L170.931 18.508L176.111 8.12H181.067V28H176.475Z" fill="white"/>
</g>
<defs>
<clipPath id="clip0_12405_7">
<rect width="181" height="35" fill="white"/>
</clipPath>
</defs>
</svg>
