<svg width="10" height="7" viewBox="0 0 10 7" fill="none" xmlns="http://www.w3.org/2000/svg">
<path d="M9.45533 5.34847C9.45533 5.4199 9.41962 5.50025 9.36605 5.55382L8.91962 6.00025C8.86605 6.05382 8.78569 6.08954 8.71426 6.08954C8.64283 6.08954 8.56247 6.05382 8.5089 6.00025L4.99997 2.49132L1.49105 6.00025C1.43747 6.05382 1.35712 6.08954 1.28569 6.08954C1.20533 6.08954 1.1339 6.05382 1.08033 6.00025L0.633902 5.55382C0.580331 5.50025 0.544617 5.4199 0.544617 5.34847C0.544617 5.27704 0.580331 5.19668 0.633902 5.14311L4.79462 0.982396C4.84819 0.928824 4.92855 0.89311 4.99997 0.89311C5.0714 0.89311 5.15176 0.928824 5.20533 0.982396L9.36605 5.14311C9.41962 5.19668 9.45533 5.27704 9.45533 5.34847Z" fill="white"/>
</svg>
